<svg width="217" height="50" viewBox="0 0 217 50" fill="none" xmlns="http://www.w3.org/2000/svg">
<path d="M40.1745 10.2259V38.6259H45.9345V20.6659L52.5345 32.7059H56.7745L63.3745 20.6659V38.6259H69.1345V10.2259H63.7345L54.7345 26.6259L45.7745 10.2259H40.1745ZM75.1151 10.2259V38.6259H85.6351C90.7951 38.6259 95.9951 36.3059 95.9951 30.5459C95.9951 27.3459 94.4351 24.7459 91.4351 23.5859C93.7151 22.3459 94.7951 20.1459 94.7951 17.5859C94.7951 12.1459 90.0751 10.2259 85.4351 10.2259H75.1151ZM80.8751 33.7059V26.2659H85.3551C87.8351 26.2659 90.0351 27.1859 90.0351 29.9859C90.0351 32.7859 87.8351 33.7059 85.3551 33.7059H80.8751ZM80.8751 21.6659V15.1459H84.7951C86.9951 15.1459 88.8751 15.9459 88.8751 18.4259C88.8751 20.8659 86.9551 21.6659 84.7951 21.6659H80.8751ZM98.5879 15.5059H106.588V38.6259H112.548V15.5059H120.548V10.2259H98.5879V15.5059ZM120.555 28.0659C120.555 34.4259 125.235 39.2259 131.515 39.2259C137.995 39.2259 142.635 34.3459 142.635 28.0259C142.635 21.6259 137.955 16.9059 131.675 16.9059C125.275 16.9059 120.555 21.7859 120.555 28.0659ZM131.595 21.9459C134.995 21.9459 136.915 24.9459 136.915 28.0659C136.915 31.2259 134.915 34.1859 131.595 34.1859C128.235 34.1859 126.275 31.1459 126.275 28.0659C126.275 24.9059 128.275 21.9459 131.595 21.9459ZM147.116 8.78591V38.6259H152.596V28.1059L160.876 38.6259H167.956L158.196 26.8659L166.996 17.5059H160.436L152.596 26.1059V8.78591H147.116ZM169.225 28.0259C169.225 34.4259 173.665 39.2259 180.025 39.2259C183.985 39.2259 188.105 37.2659 189.625 33.4659L184.625 31.8659C183.585 33.5459 182.065 34.5059 180.065 34.5059C177.025 34.5059 175.345 32.2659 174.905 29.4659H190.065V28.0659C190.065 21.6659 186.185 16.9059 179.745 16.9059C173.425 16.9059 169.225 22.0259 169.225 28.0259ZM179.745 21.2259C182.425 21.2259 183.945 23.2259 184.305 25.7059H174.985C175.465 23.2259 177.065 21.2259 179.745 21.2259ZM194.341 17.5059V38.6259H199.941V26.5059C199.941 23.9059 201.661 21.9459 204.261 21.9459C207.021 21.9459 208.021 24.2259 208.021 26.6659V38.6259H213.621V25.9459C213.621 21.0259 211.101 16.9059 205.901 16.9059C203.341 16.9059 200.981 17.9859 199.661 20.2259L199.501 17.5059H194.341Z" fill="#F7F7F7"/>
<path d="M31.347 14.6277C34.6186 22.6147 31.6191 33.6008 24.6241 39.1596C17.6292 44.7184 9.31288 42.7248 6.04122 34.7378C2.76956 26.7508 5.7691 15.7646 12.764 10.2059C19.759 4.64706 28.0753 6.64064 31.347 14.6277Z" fill="#434343" stroke="#434343" stroke-width="0.2"/>
<path d="M33.7398 16.0567C36.8285 23.5972 33.9969 33.97 27.3921 39.2188C20.7873 44.4676 12.9354 42.5848 9.84671 35.0443C6.75799 27.5039 9.58959 17.1311 16.1944 11.8823C22.7993 6.63347 30.6511 8.51632 33.7398 16.0567Z" fill="white" stroke="#434343" stroke-width="0.2"/>
<path d="M32.6968 17.2108C35.554 24.1861 33.0894 33.6399 27.1921 38.3264C21.2947 43.013 14.1977 41.1577 11.3404 34.1824C8.4832 27.2071 10.9478 17.7533 16.8451 13.0667C22.7425 8.38018 29.8395 10.2354 32.6968 17.2108Z" stroke="#434343" stroke-width="0.2"/>
<path d="M30.892 18.9673C33.266 24.7628 31.2506 32.5901 26.3926 36.4507C21.5346 40.3113 15.6713 38.7451 13.2974 32.9496C10.9234 27.154 12.9389 19.3267 17.7968 15.4661C22.6548 11.6055 28.5181 13.1718 30.892 18.9673Z" stroke="#434343" stroke-width="0.2"/>
<path d="M22.3824 22.4783L22.3824 22.2505L24.485 21.3486L24.485 21.5764L22.3824 22.4783Z" fill="#434343" stroke="#434343" stroke-width="0.2"/>
<path d="M19.1817 26.8456L19.1817 26.6179L19.4552 26.5006L19.4552 26.7283L19.1817 26.8456Z" fill="#434343" stroke="#434343" stroke-width="0.2"/>
<path d="M20.0951 26.4533L20.0951 26.2256L20.3685 26.1083L20.3685 26.336L20.0951 26.4533Z" fill="#434343" stroke="#434343" stroke-width="0.2"/>
<path d="M21.0104 26.061L21.0104 25.8333L21.2838 25.716L21.2838 25.9437L21.0104 26.061Z" fill="#434343" stroke="#434343" stroke-width="0.2"/>
<path d="M21.9259 25.6686L21.9259 25.4408L22.1994 25.3235L22.1994 25.5513L21.9259 25.6686Z" fill="#434343" stroke="#434343" stroke-width="0.2"/>
<path d="M22.8392 25.2761L22.8392 25.0484L23.1127 24.9311L23.1127 25.1588L22.8392 25.2761Z" fill="#434343" stroke="#434343" stroke-width="0.2"/>
<path d="M23.7545 24.884L23.7545 24.6562L24.028 24.5389L24.028 24.7667L23.7545 24.884Z" fill="#434343" stroke="#434343" stroke-width="0.2"/>
<path d="M24.6695 24.4916L24.6695 24.2639L24.943 24.1466L24.943 24.3743L24.6695 24.4916Z" fill="#434343" stroke="#434343" stroke-width="0.2"/>
<path d="M25.5829 24.0994L25.5829 23.8716L25.8563 23.7543L25.8563 23.9821L25.5829 24.0994Z" fill="#434343" stroke="#434343" stroke-width="0.2"/>
<path d="M26.4982 23.7072L26.4982 23.4795L26.7716 23.3622L26.7716 23.5899L26.4982 23.7072Z" fill="#434343" stroke="#434343" stroke-width="0.2"/>
<path d="M27.4115 23.3149L27.4115 23.0871L27.6849 22.9698L27.6849 23.1976L27.4115 23.3149Z" fill="#434343" stroke="#434343" stroke-width="0.2"/>
<path d="M21.2394 28.9572L21.2394 28.7294L21.5128 28.6121L21.5128 28.8399L21.2394 28.9572Z" fill="#434343" stroke="#434343" stroke-width="0.2"/>
<path d="M24.3484 27.1958L24.2565 27.2353L24.2565 27.3353L24.2565 28.1908L24.2565 28.2908L24.3484 28.2514L25.4916 27.761L25.5835 27.7216L25.5835 27.6216L25.5835 26.7661L25.5835 26.6661L25.4916 26.7055L24.3484 27.1958ZM25.8569 27.5043L25.8569 27.6043L25.9488 27.5648L27.092 27.0745L27.1839 27.0351L27.1839 26.9351L27.1839 26.0795L27.1839 25.9795L27.092 26.019L25.9488 26.5093L25.8569 26.5487L25.8569 26.6487L25.8569 27.5043ZM27.092 25.7912L27.1839 25.7518L27.1839 25.6518L27.1839 24.7963L27.1839 24.6963L27.092 24.7357L25.9488 25.2261L25.8569 25.2655L25.8569 25.3655L25.8569 26.221L25.8569 26.321L25.9488 26.2816L27.092 25.7912ZM25.5835 25.4828L25.5835 25.3828L25.4916 25.4222L24.3484 25.9126L24.2565 25.952L24.2565 26.052L24.2565 26.9075L24.2565 27.0075L24.3484 26.9681L25.4916 26.4777L25.5835 26.4383L25.5835 26.3383L25.5835 25.4828ZM23.983 28.522L23.983 25.9554C23.983 25.9191 23.9952 25.8886 24.0139 25.863C24.0339 25.8357 24.0683 25.8049 24.1197 25.7829L27.3206 24.4099C27.3721 24.3878 27.4065 24.389 27.4265 24.3991C27.4452 24.4086 27.4574 24.4286 27.4574 24.4651L27.4574 27.0316C27.4574 27.0681 27.4452 27.0986 27.4265 27.1241C27.4065 27.1514 27.3721 27.1821 27.3206 27.2042L24.1197 28.5772C24.0683 28.5993 24.0339 28.5981 24.0139 28.5879C23.9952 28.5785 23.983 28.5584 23.983 28.522Z" fill="#434343" stroke="#434343" stroke-width="0.2"/>
</svg>
