<svg width="216" height="39" viewBox="0 0 216 39" fill="none" xmlns="http://www.w3.org/2000/svg">
<path d="M188.599 21.6102C187.426 20.7795 186.117 20.1771 184.878 19.4488C184.055 19.0212 183.269 18.5166 182.529 17.9409C181.35 16.9054 181.586 14.8661 182.833 13.9763C184.601 12.7125 187.541 13.429 187.844 15.9999C187.846 16.0267 187.857 16.0518 187.876 16.0701C187.894 16.0883 187.919 16.0984 187.944 16.0984H190.614C190.629 16.0984 190.644 16.0951 190.658 16.0887C190.672 16.0822 190.684 16.0727 190.694 16.0609C190.704 16.049 190.712 16.0349 190.717 16.0197C190.722 16.0045 190.723 15.9883 190.722 15.9724C190.577 14.1968 189.945 12.7204 188.769 11.7755C187.681 10.8833 186.347 10.3964 184.974 10.3896C177.899 10.3896 177.255 18.3622 181.061 20.8779C181.505 21.1693 185.237 23.1654 186.557 24.0276C187.877 24.8898 188.292 26.4882 187.718 27.752C187.197 28.9095 185.843 29.6851 184.49 29.6103C183.01 29.5276 181.864 28.6693 181.46 27.3347C181.395 27.0391 181.36 26.7367 181.357 26.4331C181.355 26.4042 181.343 26.3771 181.323 26.3574C181.303 26.3377 181.277 26.3267 181.25 26.3268H178.343C178.314 26.3278 178.287 26.3407 178.267 26.3627C178.247 26.3848 178.235 26.4142 178.235 26.4449C178.235 28.6811 178.761 29.9174 180.173 31.0473C181.412 32.0474 182.928 32.5794 184.482 32.5591C188.436 32.5591 190.5 30.1733 190.906 27.7008C191.313 25.2284 190.644 23.0512 188.599 21.6102Z" fill="#F7F7F7"/>
<path d="M62.671 10.7716H59.9895C59.967 10.7708 59.9448 10.7781 59.9267 10.7924C59.9086 10.8067 59.8955 10.8271 59.8897 10.8504L57.5004 19.2008C57.4944 19.2241 57.4814 19.2446 57.4634 19.2593C57.4453 19.2739 57.4232 19.2819 57.4006 19.2819C57.3779 19.2819 57.3558 19.2739 57.3378 19.2593C57.3197 19.2446 57.3067 19.2241 57.3007 19.2008L54.9152 10.8504C54.908 10.8272 54.8942 10.807 54.8755 10.7929C54.8569 10.7787 54.8345 10.7712 54.8116 10.7716H50.3993C50.3714 10.7716 50.3447 10.7831 50.3247 10.8036C50.3047 10.8242 50.293 10.8523 50.292 10.8818V32.2167C50.292 32.2469 50.3033 32.276 50.3234 32.2974C50.3435 32.3188 50.3708 32.3308 50.3993 32.3308H53.3063C53.3202 32.3309 53.334 32.3279 53.3468 32.3221C53.3596 32.3163 53.3712 32.3078 53.3809 32.2972C53.3905 32.2865 53.3981 32.2739 53.4031 32.2601C53.408 32.2462 53.4104 32.2315 53.4099 32.2167V16.0079C53.4118 15.9821 53.422 15.9577 53.4386 15.9389C53.4553 15.92 53.4775 15.9077 53.5016 15.9041C53.5257 15.9004 53.5502 15.9055 53.5712 15.9187C53.5922 15.9318 53.6083 15.9522 53.617 15.9764L56.021 24.382L56.1874 24.9686C56.1945 24.9917 56.2084 25.0119 56.2271 25.0261C56.2457 25.0402 56.2681 25.0477 56.291 25.0473H58.5101C58.533 25.0477 58.5554 25.0402 58.5741 25.0261C58.5927 25.0119 58.6066 24.9917 58.6137 24.9686L58.7801 24.382L61.1842 15.9764C61.1928 15.9522 61.209 15.9318 61.2299 15.9187C61.2509 15.9055 61.2754 15.9004 61.2995 15.9041C61.3236 15.9077 61.3458 15.92 61.3625 15.9389C61.3792 15.9577 61.3893 15.9821 61.3913 16.0079V32.2167C61.3908 32.2315 61.3931 32.2462 61.3981 32.2601C61.4031 32.2739 61.4106 32.2865 61.4203 32.2972C61.4299 32.3078 61.4415 32.3163 61.4543 32.3221C61.4671 32.3279 61.4809 32.3309 61.4948 32.3308H64.4019C64.4303 32.3308 64.4576 32.3188 64.4777 32.2974C64.4978 32.276 64.5091 32.2469 64.5091 32.2167V10.8818C64.5082 10.8523 64.4964 10.8242 64.4764 10.8036C64.4564 10.7831 64.4297 10.7716 64.4019 10.7716H62.671Z" fill="#F7F7F7"/>
<path d="M144.183 10.7715C144.16 10.772 144.139 10.7798 144.121 10.794C144.103 10.8081 144.09 10.8278 144.083 10.8503L141.697 19.2008C141.69 19.2235 141.676 19.2432 141.658 19.2572C141.64 19.2712 141.618 19.2787 141.595 19.2787C141.573 19.2787 141.551 19.2712 141.533 19.2572C141.515 19.2432 141.501 19.2235 141.494 19.2008L139.108 10.8503C139.102 10.8274 139.089 10.8074 139.071 10.7932C139.053 10.779 139.031 10.7714 139.008 10.7715H134.596C134.568 10.7715 134.541 10.783 134.521 10.8036C134.501 10.8241 134.49 10.8522 134.489 10.8818V32.2166C134.489 32.2469 134.5 32.2759 134.52 32.2973C134.54 32.3187 134.568 32.3308 134.596 32.3308H137.503C137.531 32.3298 137.557 32.3173 137.577 32.296C137.596 32.2747 137.607 32.2462 137.607 32.2166V16.0078C137.609 15.982 137.619 15.9577 137.635 15.9388C137.652 15.9199 137.674 15.9077 137.698 15.904C137.722 15.9003 137.747 15.9055 137.768 15.9186C137.789 15.9318 137.805 15.9521 137.814 15.9763L140.218 24.3819L140.384 24.9685C140.391 24.9911 140.404 25.0107 140.422 25.0249C140.44 25.039 140.462 25.0468 140.484 25.0473H142.703C142.726 25.0481 142.748 25.0407 142.766 25.0264C142.784 25.0121 142.797 24.9917 142.803 24.9685L142.973 24.3819L145.374 15.9763C145.382 15.9521 145.398 15.9318 145.419 15.9186C145.44 15.9055 145.465 15.9003 145.489 15.904C145.513 15.9077 145.535 15.9199 145.552 15.9388C145.569 15.9577 145.579 15.982 145.581 16.0078V32.2166C145.581 32.2469 145.592 32.2759 145.612 32.2973C145.632 32.3187 145.659 32.3308 145.688 32.3308H148.595C148.623 32.3298 148.649 32.3173 148.668 32.296C148.688 32.2747 148.699 32.2462 148.699 32.2166V10.8818C148.698 10.8529 148.686 10.8254 148.667 10.8049C148.648 10.7845 148.622 10.7725 148.595 10.7715H144.183Z" fill="#F7F7F7"/>
<path d="M106.772 10.7715H93.0877C93.0599 10.7715 93.0332 10.783 93.0132 10.8036C92.9932 10.8241 92.9814 10.8522 92.9805 10.8818V13.5511C92.9814 13.5807 92.9932 13.6087 93.0132 13.6293C93.0332 13.6499 93.0599 13.6613 93.0877 13.6613H98.3877V32.2166C98.3877 32.2316 98.3905 32.2464 98.3959 32.2603C98.4013 32.2741 98.4092 32.2867 98.4191 32.2973C98.4291 32.3079 98.4409 32.3163 98.4539 32.3221C98.4669 32.3278 98.4809 32.3308 98.495 32.3308H101.402C101.43 32.3298 101.456 32.3173 101.475 32.296C101.495 32.2747 101.506 32.2462 101.506 32.2166V13.6613H106.772C106.8 13.6613 106.827 13.6499 106.847 13.6293C106.867 13.6087 106.879 13.5807 106.88 13.5511V10.8818C106.879 10.8522 106.867 10.8241 106.847 10.8036C106.827 10.783 106.8 10.7715 106.772 10.7715Z" fill="#F7F7F7"/>
<path d="M123.893 32.3308H126.533C126.55 32.3309 126.566 32.3269 126.58 32.3193C126.595 32.3116 126.607 32.3005 126.617 32.2867C126.627 32.2729 126.633 32.2569 126.636 32.2399C126.639 32.223 126.638 32.2056 126.633 32.189L121.196 10.7834C121.19 10.7595 121.176 10.7384 121.158 10.7235C121.139 10.7086 121.116 10.7006 121.093 10.7007H117.298C117.275 10.7006 117.252 10.7086 117.233 10.7235C117.215 10.7384 117.201 10.7595 117.195 10.7834L111.739 32.189C111.735 32.2058 111.735 32.2233 111.738 32.2403C111.742 32.2572 111.749 32.2731 111.759 32.2867C111.769 32.3004 111.781 32.3114 111.796 32.319C111.811 32.3267 111.827 32.3307 111.843 32.3308H114.484C114.507 32.3298 114.529 32.3208 114.547 32.3052C114.565 32.2896 114.578 32.2682 114.583 32.2442L116.17 26.0236C116.176 26 116.189 25.9791 116.207 25.9642C116.225 25.9492 116.247 25.9411 116.27 25.941H122.106C122.129 25.9417 122.151 25.9501 122.169 25.965C122.187 25.9798 122.2 26.0004 122.206 26.0236L123.785 32.2402C123.79 32.2666 123.803 32.2904 123.823 32.3071C123.843 32.3237 123.867 32.3322 123.893 32.3308V32.3308ZM116.962 22.9094L119.085 14.5747C119.092 14.552 119.105 14.5323 119.124 14.5183C119.142 14.5043 119.164 14.4968 119.186 14.4968C119.209 14.4968 119.231 14.5043 119.249 14.5183C119.267 14.5323 119.281 14.552 119.288 14.5747L121.411 22.9094C121.416 22.9259 121.416 22.9434 121.414 22.9603C121.411 22.9773 121.404 22.9933 121.395 23.0071C121.385 23.0209 121.372 23.032 121.358 23.0397C121.343 23.0473 121.327 23.0513 121.311 23.0512H117.065C117.049 23.0511 117.033 23.0471 117.018 23.0394C117.004 23.0318 116.991 23.0207 116.981 23.0071C116.971 22.9934 116.964 22.9776 116.961 22.9606C116.957 22.9437 116.958 22.9262 116.962 22.9094Z" fill="#F7F7F7"/>
<path d="M168.908 32.3308H171.545C171.561 32.3308 171.577 32.3267 171.591 32.3191C171.606 32.3115 171.619 32.3004 171.629 32.2868C171.639 32.2731 171.646 32.2572 171.649 32.2403C171.652 32.2234 171.652 32.2059 171.648 32.1891L166.193 10.7834C166.187 10.7592 166.173 10.7378 166.155 10.7227C166.136 10.7077 166.113 10.6999 166.089 10.7007H162.309C162.286 10.7006 162.263 10.7086 162.245 10.7236C162.226 10.7385 162.212 10.7595 162.206 10.7834L156.754 32.1891C156.75 32.2056 156.75 32.2227 156.753 32.2394C156.756 32.256 156.763 32.2717 156.772 32.2853C156.782 32.2988 156.794 32.31 156.808 32.3179C156.823 32.3257 156.838 32.3302 156.854 32.3308H159.495C159.518 32.3305 159.541 32.3218 159.559 32.3061C159.577 32.2903 159.59 32.2685 159.595 32.2442L161.181 26.0237C161.188 25.9998 161.201 25.9788 161.22 25.9638C161.239 25.9489 161.262 25.9409 161.285 25.941H167.117C167.14 25.9411 167.163 25.9493 167.181 25.9642C167.199 25.9792 167.212 26.0001 167.217 26.0237L168.804 32.2442C168.81 32.2689 168.823 32.2908 168.842 32.3064C168.861 32.3221 168.884 32.3307 168.908 32.3308ZM161.976 22.9095L164.099 14.5748C164.107 14.5521 164.12 14.5323 164.138 14.5184C164.157 14.5044 164.179 14.4969 164.201 14.4969C164.224 14.4969 164.246 14.5044 164.264 14.5184C164.282 14.5323 164.296 14.5521 164.303 14.5748L166.426 22.9095C166.43 22.9263 166.43 22.9438 166.427 22.9607C166.423 22.9776 166.416 22.9935 166.406 23.0071C166.396 23.0208 166.384 23.0319 166.369 23.0395C166.355 23.0471 166.339 23.0511 166.322 23.0512H162.076C162.06 23.0513 162.044 23.0474 162.03 23.0397C162.015 23.0321 162.003 23.0209 161.993 23.0071C161.983 22.9934 161.977 22.9773 161.974 22.9604C161.971 22.9434 161.972 22.926 161.976 22.9095Z" fill="#F7F7F7"/>
<path d="M76.2446 29.1772V22.5551C76.2441 22.5405 76.2464 22.5259 76.2515 22.5123C76.2565 22.4986 76.2641 22.4863 76.2738 22.4759C76.2835 22.4656 76.2952 22.4575 76.308 22.4521C76.3208 22.4468 76.3345 22.4443 76.3482 22.4449H84.0707C84.0985 22.4438 84.1249 22.4314 84.1442 22.4101C84.1635 22.3888 84.1743 22.3603 84.1743 22.3307V19.6653C84.1743 19.6357 84.1635 19.6073 84.1442 19.5859C84.1249 19.5646 84.0985 19.5522 84.0707 19.5511H76.3482C76.3207 19.5511 76.2944 19.5395 76.275 19.5189C76.2555 19.4982 76.2446 19.4701 76.2446 19.4409V13.7755C76.2441 13.7607 76.2464 13.7459 76.2514 13.7321C76.2564 13.7183 76.264 13.7057 76.2736 13.695C76.2833 13.6843 76.2949 13.6759 76.3077 13.6701C76.3205 13.6643 76.3343 13.6613 76.3482 13.6613H85.1359C85.1637 13.6613 85.1904 13.6499 85.2105 13.6293C85.2305 13.6087 85.2422 13.5807 85.2431 13.5511V10.8818C85.2422 10.8522 85.2305 10.8241 85.2105 10.8036C85.1904 10.783 85.1637 10.7715 85.1359 10.7715H73.2303C73.2029 10.7715 73.1765 10.7832 73.1571 10.8038C73.1377 10.8245 73.1268 10.8525 73.1268 10.8818V32.2166C73.1263 32.2314 73.1286 32.2462 73.1336 32.26C73.1386 32.2738 73.1461 32.2865 73.1558 32.2971C73.1654 32.3078 73.177 32.3162 73.1898 32.322C73.2026 32.3278 73.2164 32.3308 73.2303 32.3308H85.5131C85.5416 32.3308 85.5689 32.3187 85.589 32.2973C85.6091 32.2759 85.6204 32.2469 85.6204 32.2166V29.4016C85.6204 29.3713 85.6091 29.3423 85.589 29.3209C85.5689 29.2995 85.5416 29.2874 85.5131 29.2874H76.3482C76.3345 29.288 76.3208 29.2855 76.308 29.2802C76.2952 29.2748 76.2835 29.2667 76.2738 29.2564C76.2641 29.246 76.2565 29.2337 76.2515 29.22C76.2464 29.2064 76.2441 29.1918 76.2446 29.1772V29.1772Z" fill="#F7F7F7"/>
<path d="M215.11 32.1379L205.072 21.0945C205.062 21.0842 205.054 21.072 205.049 21.0584C205.044 21.0449 205.041 21.0304 205.041 21.0157C205.041 21.0011 205.044 20.9865 205.049 20.973C205.054 20.9595 205.062 20.9473 205.072 20.937L214.1 10.9802C214.115 10.9648 214.125 10.945 214.129 10.9234C214.133 10.9018 214.131 10.8794 214.123 10.8591C214.115 10.8387 214.102 10.8214 214.084 10.8093C214.067 10.7972 214.047 10.7909 214.026 10.7912H210.331C210.317 10.7912 210.302 10.7944 210.289 10.8005C210.276 10.8066 210.263 10.8155 210.253 10.8267L202.59 19.2952C202.575 19.3118 202.556 19.3232 202.535 19.328C202.514 19.3329 202.493 19.331 202.473 19.3225C202.453 19.314 202.436 19.2994 202.424 19.2805C202.412 19.2616 202.405 19.2393 202.405 19.2165V10.8818C202.405 10.8525 202.394 10.8245 202.375 10.8038C202.355 10.7832 202.329 10.7715 202.302 10.7715H199.395C199.367 10.7715 199.34 10.783 199.32 10.8036C199.3 10.8241 199.288 10.8522 199.287 10.8818V32.2166C199.287 32.2469 199.299 32.2759 199.319 32.2973C199.339 32.3187 199.366 32.3308 199.395 32.3308H202.302C202.316 32.3308 202.329 32.3278 202.342 32.322C202.355 32.3162 202.367 32.3078 202.376 32.2971C202.386 32.2865 202.393 32.2738 202.398 32.26C202.403 32.2462 202.406 32.2314 202.405 32.2166V22.8268C202.406 22.8048 202.413 22.7834 202.424 22.7654C202.436 22.7473 202.453 22.7333 202.472 22.7249C202.491 22.7166 202.512 22.7144 202.532 22.7185C202.553 22.7226 202.571 22.7328 202.586 22.748L211.267 32.2954C211.286 32.317 211.313 32.3297 211.341 32.3308H215.039C215.06 32.3293 215.079 32.3217 215.096 32.3089C215.112 32.296 215.125 32.2784 215.132 32.2581C215.14 32.2379 215.141 32.2158 215.137 32.1945C215.133 32.1732 215.124 32.1535 215.11 32.1379V32.1379Z" fill="#F7F7F7"/>
<path d="M36.8013 1L22.2732 12.5988L24.9714 5.75577L36.8013 1Z" fill="#F7F7F7" stroke="#F7F7F7" stroke-width="0.712817" stroke-linecap="round" stroke-linejoin="round"/>
<path d="M2.55664 1L17.6036 12.5988L14.9216 5.71118L2.55664 1Z" fill="#F7F7F7" stroke="#F7F7F7" stroke-width="0.712817" stroke-linecap="round" stroke-linejoin="round"/>
<path d="M31.422 28.0637L27.4617 34.4488L35.9359 36.9009L38.3577 28.2047L31.422 28.0637Z" fill="#F7F7F7" stroke="#F7F7F7" stroke-width="0.712817" stroke-linecap="round" stroke-linejoin="round"/>
<path d="M1 28.2047L3.41037 36.9009L11.8961 34.4488L7.94513 28.0637L1 28.2047Z" fill="#F7F7F7" stroke="#F7F7F7" stroke-width="0.712817" stroke-linecap="round" stroke-linejoin="round"/>
<path d="M11.6354 17.3381L9.30176 21.0477L17.6035 21.4359L17.3227 12.0464L11.6354 17.3381Z" fill="#F7F7F7" stroke="#F7F7F7" stroke-width="0.712817" stroke-linecap="round" stroke-linejoin="round"/>
<path d="M28.2413 17.3849L22.4652 12.0464L22.2732 21.4359L30.575 21.0521L28.2413 17.3849Z" fill="#F7F7F7" stroke="#F7F7F7" stroke-width="0.712817" stroke-linecap="round" stroke-linejoin="round"/>
<path d="M11.8959 34.6916L17.0845 32.1396L12.6149 28.6161L11.8959 34.6916Z" fill="#F7F7F7" stroke="#F7F7F7" stroke-width="0.712817" stroke-linecap="round" stroke-linejoin="round"/>
<path d="M22.7921 32.1396L27.4619 34.6916L26.8147 28.6161L22.7921 32.1396Z" fill="#F7F7F7" stroke="#F7F7F7" stroke-width="0.712817" stroke-linecap="round" stroke-linejoin="round"/>
<path d="M27.4619 34.5434L22.7921 31.9301L23.1639 35.4291L23.1231 36.901L27.4619 34.5434Z" fill="#FEF9F9" stroke="#FEF9F9" stroke-width="0.712817" stroke-linecap="round" stroke-linejoin="round"/>
<path d="M11.8959 34.5434L16.7167 36.901L16.6865 35.4291L17.0845 31.9301L11.8959 34.5434Z" fill="#FEF9F9" stroke="#FEF9F9" stroke-width="0.712817" stroke-linecap="round" stroke-linejoin="round"/>
<path d="M16.5659 25.8545L12.415 24.5378L15.3437 23.0929L16.5659 25.8545Z" fill="#233447" stroke="#233447" stroke-width="0.712817" stroke-linecap="round" stroke-linejoin="round"/>
<path d="M22.7921 25.8545L24.0101 23.0929L26.943 24.5378L22.7921 25.8545Z" fill="#233447" stroke="#233447" stroke-width="0.712817" stroke-linecap="round" stroke-linejoin="round"/>
<path d="M12.2034 34.6916L12.9339 28.0637L8.26416 28.21L12.2034 34.6916Z" fill="#F7F7F7" stroke="#F7F7F7" stroke-width="0.712817" stroke-linecap="round" stroke-linejoin="round"/>
<path d="M26.9434 28.0637L27.6716 34.6916L31.6131 28.21L26.9434 28.0637Z" fill="#F7F7F7" stroke="#F7F7F7" stroke-width="0.712817" stroke-linecap="round" stroke-linejoin="round"/>
<path d="M30.575 20.8837L22.2732 21.2798L23.0414 25.8546L24.2679 23.1001L27.2214 24.5413L30.575 20.8837Z" fill="#F7F7F7" stroke="#F7F7F7" stroke-width="0.712817" stroke-linecap="round" stroke-linejoin="round"/>
<path d="M12.6699 24.5413L15.6088 23.1001L16.8353 25.8546L17.6035 21.2798L9.30176 20.8837L12.6699 24.5413Z" fill="#F7F7F7" stroke="#F7F7F7" stroke-width="0.712817" stroke-linecap="round" stroke-linejoin="round"/>
<path d="M9.30176 20.8837L12.9338 28.6162L12.811 24.7665L9.30176 20.8837Z" fill="#F7F7F7" stroke="#F7F7F7" stroke-width="0.712817" stroke-linecap="round" stroke-linejoin="round"/>
<path d="M27.0813 24.7665L26.9434 28.6162L30.5754 20.8837L27.0813 24.7665Z" fill="#F7F7F7" stroke="#F7F7F7" stroke-width="0.712817" stroke-linecap="round" stroke-linejoin="round"/>
<path d="M17.5782 21.436L16.566 25.9957L17.8504 31.3778L18.1226 24.2919L17.5782 21.436Z" fill="#F7F7F7" stroke="#F7F7F7" stroke-width="0.712817" stroke-linecap="round" stroke-linejoin="round"/>
<path d="M22.1087 21.436L21.7542 24.2763L21.9249 31.3778L22.7919 25.9957L22.1087 21.436Z" fill="#F7F7F7" stroke="#F7F7F7" stroke-width="0.712817" stroke-linecap="round" stroke-linejoin="round"/>
<path d="M22.7353 26.0529L21.7542 31.4114L22.4673 31.9299L26.8095 28.3483L26.9428 24.7497L22.7353 26.0529Z" fill="#F7F7F7" stroke="#F7F7F7" stroke-width="0.712817" stroke-linecap="round" stroke-linejoin="round"/>
<path d="M12.415 24.7497L12.534 28.3483L16.8884 31.9299L17.6036 31.4114L16.6197 26.0529L12.415 24.7497Z" fill="#F7F7F7" stroke="#F7F7F7" stroke-width="0.712817" stroke-linecap="round" stroke-linejoin="round"/>
<path d="M22.7963 37.0422L22.8401 35.5747L22.471 35.228H16.8866L16.5321 35.5747L16.5612 37.0422L11.8959 34.6917L13.5254 36.111L16.8428 38.558H22.5148L25.8322 36.111L27.4617 34.6917L22.7963 37.0422Z" fill="#FEF9F9" stroke="#FEF9F9" stroke-width="0.712817" stroke-linecap="round" stroke-linejoin="round"/>
<path d="M22.3978 31.9517L21.6966 31.3777H17.6474L16.9462 31.9517L16.566 35.7963L16.916 35.4143H22.4281L22.7924 35.7963L22.3978 31.9517Z" fill="#161616" stroke="#161616" stroke-width="0.712817" stroke-linecap="round" stroke-linejoin="round"/>
<path d="M37.6347 13.5245L38.8768 7.03183L37.0144 1L22.7921 12.363L28.2629 17.343L35.9936 19.7789L37.6944 17.6299L36.9547 17.0577L38.1371 15.8946L37.2357 15.1312L38.4181 14.1609L37.6347 13.5245Z" fill="#434343" stroke="#434343" stroke-width="0.712817" stroke-linecap="round" stroke-linejoin="round"/>
<path d="M1 7.03183L2.25666 13.5245L1.45869 14.1609L2.64109 15.1312L1.73973 15.8946L2.92213 17.0577L2.1824 17.6299L3.88319 19.7789L11.6139 17.343L17.0847 12.363L2.86242 1L1 7.03183Z" fill="#434343" stroke="#434343" stroke-width="0.712817" stroke-linecap="round" stroke-linejoin="round"/>
<path d="M35.7835 19.9884L28.0909 17.5696L30.4151 21.3473L26.9434 28.6161L31.5322 28.5523H38.3583L35.7835 19.9884Z" fill="#F7F7F7" stroke="#F7F7F7" stroke-width="0.712817" stroke-linecap="round" stroke-linejoin="round"/>
<path d="M11.7325 17.5696L3.6801 19.9884L1 28.5523H8.14541L12.9338 28.6161L9.29966 21.3473L11.7325 17.5696Z" fill="#F7F7F7" stroke="#F7F7F7" stroke-width="0.712817" stroke-linecap="round" stroke-linejoin="round"/>
<path d="M22.1653 21.4862L22.6617 12.4254L24.8673 5.97083H15.0089L17.2145 12.4254L17.7109 21.4862L17.9008 24.343L17.9152 31.3776H21.961L21.9754 24.343L22.1653 21.4862Z" fill="#F7F7F7" stroke="#F7F7F7" stroke-width="0.712817" stroke-linecap="round" stroke-linejoin="round"/>
</svg>
