<svg width="199" height="41" viewBox="0 0 199 41" fill="none" xmlns="http://www.w3.org/2000/svg">
<path d="M38.3157 20.3933C38.3157 31.6556 29.7378 40.7866 19.1578 40.7866C8.57785 40.7866 0 31.6556 0 20.3933C0 9.13102 8.57785 0 19.1578 0C29.7401 0 38.3157 9.13102 38.3157 20.3933Z" fill="white"/>
<path d="M9.45169 21.0786L9.53434 20.9403L14.5181 12.6411C14.5909 12.5196 14.7621 12.5322 14.8172 12.6642C15.6498 14.6504 16.3682 17.1207 16.0317 18.6586C15.888 19.2914 15.4943 20.1483 15.0515 20.9403C14.9944 21.0556 14.9314 21.1687 14.8645 21.2777C14.833 21.3279 14.7798 21.3573 14.7227 21.3573H9.59733C9.45955 21.3573 9.37885 21.198 9.45169 21.0786Z" fill="#A02279"/>
<path d="M31.6659 22.6206V23.9343C31.6659 24.0097 31.6226 24.0767 31.5596 24.1061C31.1738 24.2821 29.8531 24.9274 29.3039 25.7403C27.9025 27.8167 26.8318 30.7856 24.4383 30.7856H14.4532C10.9142 30.7856 8.04639 27.7224 8.04639 23.9426V23.8211C8.04639 23.7205 8.12313 23.6388 8.21762 23.6388H13.784C13.8942 23.6388 13.9749 23.7478 13.965 23.863C13.9257 24.2485 13.9926 24.6424 14.1638 25.0007C14.4945 25.7152 15.1795 26.1615 15.9195 26.1615H18.6752V23.8714H15.951C15.8113 23.8714 15.7286 23.6996 15.8093 23.5781C15.8388 23.5299 15.8723 23.4796 15.9077 23.423C16.1656 23.0333 16.5337 22.4278 16.8998 21.7385C17.1497 21.2733 17.3918 20.7768 17.5867 20.2781C17.6261 20.188 17.6575 20.0958 17.689 20.0057C17.7422 19.8465 17.7973 19.6977 17.8367 19.549C17.876 19.4232 17.9075 19.2912 17.939 19.1676C18.0315 18.7444 18.0709 18.296 18.0709 17.8309C18.0709 17.6486 18.063 17.4579 18.0473 17.2756C18.0394 17.0766 18.0158 16.8775 17.9921 16.6785C17.9764 16.5025 17.9469 16.3286 17.9154 16.1463C17.876 15.8802 17.8209 15.6162 17.7579 15.3501L17.7363 15.2496C17.689 15.0673 17.6497 14.8934 17.5946 14.7111C17.4391 14.1391 17.26 13.5818 17.071 13.0601C17.0021 12.8526 16.9234 12.6536 16.8446 12.4545C16.7285 12.1549 16.6104 11.8826 16.5022 11.6248C16.4471 11.5075 16.3998 11.4006 16.3526 11.2917C16.2994 11.1681 16.2443 11.0444 16.1892 10.9271C16.1498 10.837 16.1046 10.7532 16.0731 10.6694L15.7365 10.0073C15.6893 9.91721 15.768 9.81035 15.8605 9.83759L17.9666 10.4452H17.9725C17.9764 10.4452 17.9784 10.4473 17.9803 10.4473L18.2579 10.529L18.563 10.6212L18.6752 10.6547V9.32217C18.6752 8.67893 19.1594 8.15723 19.7577 8.15723C20.0569 8.15723 20.3285 8.28713 20.5234 8.49873C20.7182 8.71037 20.8403 8.99951 20.8403 9.32217V11.3001L21.0647 11.3671C21.0824 11.3734 21.1001 11.3818 21.1158 11.3943C21.171 11.4383 21.2497 11.5033 21.3501 11.5829C21.4288 11.6499 21.5134 11.7317 21.6158 11.8155C21.8185 11.9894 22.0606 12.2136 22.3263 12.4713C22.3972 12.5362 22.4661 12.6033 22.5291 12.6703C22.8716 13.0098 23.2554 13.4079 23.6215 13.8479C23.7238 13.9715 23.8242 14.0972 23.9265 14.2292C24.0289 14.3633 24.1372 14.4953 24.2316 14.6273C24.3556 14.8033 24.4895 14.9856 24.6056 15.1762C24.6607 15.2663 24.7237 15.3585 24.7769 15.4486C24.9264 15.6895 25.0583 15.9389 25.1843 16.1882C25.2374 16.3035 25.2925 16.4292 25.3398 16.5528C25.4795 16.8859 25.5898 17.2254 25.6606 17.5648C25.6823 17.6381 25.698 17.7177 25.7059 17.789V17.8058C25.7295 17.9063 25.7374 18.0132 25.7452 18.1221C25.7767 18.4699 25.761 18.8177 25.6901 19.1676C25.6606 19.3164 25.6213 19.4568 25.574 19.6055C25.5268 19.748 25.4795 19.8968 25.4185 20.0371C25.3004 20.3284 25.1607 20.6196 24.9953 20.892C24.9422 20.9926 24.8792 21.0994 24.8162 21.2C24.7473 21.3068 24.6765 21.4074 24.6135 21.5059C24.5269 21.6316 24.4344 21.7636 24.3399 21.8809C24.2553 22.0046 24.1687 22.1282 24.0742 22.2371C23.9423 22.4026 23.8163 22.5598 23.6844 22.7107C23.6057 22.8091 23.5211 22.9097 23.4345 22.9998C23.3499 23.1003 23.2632 23.1904 23.1845 23.2743C23.0526 23.4146 22.9424 23.5236 22.8499 23.6137L22.6334 23.8253C22.6019 23.8547 22.5606 23.8714 22.5173 23.8714H20.8403V26.1615H22.9503C23.4227 26.1615 23.8715 25.9834 24.2336 25.6565C24.3576 25.5413 24.8989 25.0426 25.5386 24.2905C25.5602 24.2653 25.5878 24.2464 25.6193 24.2381L31.4474 22.4446C31.5557 22.411 31.6659 22.499 31.6659 22.6206Z" fill="#A02279"/>
<path d="M62.9237 32.1173C60.8117 32.1173 58.8703 31.6266 57.0997 30.6453C55.3503 29.664 53.953 28.2986 52.9077 26.5493C51.8837 24.7786 51.3717 22.7946 51.3717 20.5973C51.3717 18.4 51.8837 16.4266 52.9077 14.6773C53.953 12.928 55.3503 11.5626 57.0997 10.5813C58.8703 9.59998 60.8117 9.10931 62.9237 9.10931C65.0357 9.10931 66.9663 9.59998 68.7157 10.5813C70.4863 11.5626 71.873 12.928 72.8757 14.6773C73.8997 16.4266 74.4117 18.4 74.4117 20.5973C74.4117 22.7946 73.8997 24.7786 72.8757 26.5493C71.8517 28.2986 70.465 29.664 68.7157 30.6453C66.9663 31.6266 65.0357 32.1173 62.9237 32.1173ZM62.9237 27.1253C64.7157 27.1253 66.145 26.528 67.2117 25.3333C68.2997 24.1386 68.8437 22.56 68.8437 20.5973C68.8437 18.6133 68.2997 17.0346 67.2117 15.8613C66.145 14.6666 64.7157 14.0693 62.9237 14.0693C61.1103 14.0693 59.6597 14.656 58.5717 15.8293C57.505 17.0026 56.9717 18.592 56.9717 20.5973C56.9717 22.5813 57.505 24.1706 58.5717 25.3653C59.6597 26.5386 61.1103 27.1253 62.9237 27.1253ZM81.9679 16.5653C82.5013 15.7333 83.2373 15.0613 84.1759 14.5493C85.1146 14.0373 86.2133 13.7813 87.4719 13.7813C88.9439 13.7813 90.2773 14.1546 91.4719 14.9013C92.6666 15.648 93.6053 16.7146 94.2879 18.1013C94.9919 19.488 95.3439 21.0986 95.3439 22.9333C95.3439 24.768 94.9919 26.3893 94.2879 27.7973C93.6053 29.184 92.6666 30.2613 91.4719 31.0293C90.2773 31.776 88.9439 32.1493 87.4719 32.1493C86.2346 32.1493 85.1359 31.8933 84.1759 31.3813C83.2373 30.8693 82.5013 30.208 81.9679 29.3973V40.4053H76.4959V14.0373H81.9679V16.5653ZM89.7759 22.9333C89.7759 21.568 89.3919 20.5013 88.6239 19.7333C87.8773 18.944 86.9493 18.5493 85.8399 18.5493C84.7519 18.5493 83.8239 18.944 83.0559 19.7333C82.3093 20.5226 81.9359 21.6 81.9359 22.9653C81.9359 24.3306 82.3093 25.408 83.0559 26.1973C83.8239 26.9866 84.7519 27.3813 85.8399 27.3813C86.9279 27.3813 87.8559 26.9866 88.6239 26.1973C89.3919 25.3866 89.7759 24.2986 89.7759 22.9333ZM114.087 22.6773C114.087 23.1893 114.055 23.7226 113.991 24.2773H101.607C101.692 25.3866 102.044 26.24 102.663 26.8373C103.303 27.4133 104.081 27.7013 104.999 27.7013C106.364 27.7013 107.313 27.1253 107.847 25.9733H113.671C113.372 27.1466 112.828 28.2026 112.039 29.1413C111.271 30.08 110.3 30.816 109.127 31.3493C107.953 31.8826 106.641 32.1493 105.191 32.1493C103.441 32.1493 101.884 31.776 100.519 31.0293C99.1533 30.2826 98.0867 29.216 97.3187 27.8293C96.5507 26.4426 96.1667 24.8213 96.1667 22.9653C96.1667 21.1093 96.54 19.488 97.2867 18.1013C98.0547 16.7146 99.1213 15.648 100.487 14.9013C101.852 14.1546 103.42 13.7813 105.191 13.7813C106.919 13.7813 108.455 14.144 109.799 14.8693C111.143 15.5946 112.188 16.6293 112.935 17.9733C113.703 19.3173 114.087 20.8853 114.087 22.6773ZM108.487 21.2373C108.487 20.2986 108.167 19.552 107.527 18.9973C106.887 18.4426 106.087 18.1653 105.127 18.1653C104.209 18.1653 103.431 18.432 102.791 18.9653C102.172 19.4986 101.788 20.256 101.639 21.2373H108.487ZM126.893 13.8453C128.984 13.8453 130.648 14.528 131.885 15.8933C133.144 17.2373 133.773 19.0933 133.773 21.4613V31.8933H128.333V22.1973C128.333 21.0026 128.024 20.0746 127.405 19.4133C126.787 18.752 125.955 18.4213 124.909 18.4213C123.864 18.4213 123.032 18.752 122.413 19.4133C121.795 20.0746 121.485 21.0026 121.485 22.1973V31.8933H116.013V14.0373H121.485V16.4053C122.04 15.616 122.787 14.9973 123.725 14.5493C124.664 14.08 125.72 13.8453 126.893 13.8453ZM144.744 32.1173C143.101 32.1173 141.629 31.8506 140.328 31.3173C139.027 30.784 137.981 29.9946 137.192 28.9493C136.424 27.904 136.019 26.6453 135.976 25.1733H141.8C141.885 26.0053 142.173 26.6453 142.664 27.0933C143.155 27.52 143.795 27.7333 144.584 27.7333C145.395 27.7333 146.035 27.552 146.504 27.1893C146.973 26.8053 147.208 26.2826 147.208 25.6213C147.208 25.0666 147.016 24.608 146.632 24.2453C146.269 23.8826 145.811 23.584 145.256 23.3493C144.723 23.1146 143.955 22.848 142.952 22.5493C141.501 22.1013 140.317 21.6533 139.4 21.2053C138.483 20.7573 137.693 20.096 137.032 19.2213C136.371 18.3466 136.04 17.2053 136.04 15.7973C136.04 13.7066 136.797 12.0746 138.312 10.9013C139.827 9.70664 141.8 9.10931 144.232 9.10931C146.707 9.10931 148.701 9.70664 150.216 10.9013C151.731 12.0746 152.541 13.7173 152.648 15.8293H146.728C146.685 15.104 146.419 14.5386 145.928 14.1333C145.437 13.7066 144.808 13.4933 144.04 13.4933C143.379 13.4933 142.845 13.6746 142.44 14.0373C142.035 14.3786 141.832 14.88 141.832 15.5413C141.832 16.2666 142.173 16.832 142.856 17.2373C143.539 17.6426 144.605 18.08 146.056 18.5493C147.507 19.04 148.68 19.5093 149.576 19.9573C150.493 20.4053 151.283 21.056 151.944 21.9093C152.605 22.7626 152.936 23.8613 152.936 25.2053C152.936 26.4853 152.605 27.648 151.944 28.6933C151.304 29.7386 150.365 30.5706 149.128 31.1893C147.891 31.808 146.429 32.1173 144.744 32.1173ZM172.175 22.6773C172.175 23.1893 172.143 23.7226 172.079 24.2773H159.695C159.781 25.3866 160.133 26.24 160.751 26.8373C161.391 27.4133 162.17 27.7013 163.087 27.7013C164.453 27.7013 165.402 27.1253 165.935 25.9733H171.759C171.461 27.1466 170.917 28.2026 170.127 29.1413C169.359 30.08 168.389 30.816 167.215 31.3493C166.042 31.8826 164.73 32.1493 163.279 32.1493C161.53 32.1493 159.973 31.776 158.607 31.0293C157.242 30.2826 156.175 29.216 155.407 27.8293C154.639 26.4426 154.255 24.8213 154.255 22.9653C154.255 21.1093 154.629 19.488 155.375 18.1013C156.143 16.7146 157.21 15.648 158.575 14.9013C159.941 14.1546 161.509 13.7813 163.279 13.7813C165.007 13.7813 166.543 14.144 167.887 14.8693C169.231 15.5946 170.277 16.6293 171.023 17.9733C171.791 19.3173 172.175 20.8853 172.175 22.6773ZM166.575 21.2373C166.575 20.2986 166.255 19.552 165.615 18.9973C164.975 18.4426 164.175 18.1653 163.215 18.1653C162.298 18.1653 161.519 18.432 160.879 18.9653C160.261 19.4986 159.877 20.256 159.727 21.2373H166.575ZM173.014 22.9333C173.014 21.0986 173.356 19.488 174.038 18.1013C174.742 16.7146 175.692 15.648 176.886 14.9013C178.081 14.1546 179.414 13.7813 180.886 13.7813C182.145 13.7813 183.244 14.0373 184.182 14.5493C185.142 15.0613 185.878 15.7333 186.39 16.5653V14.0373H191.862V31.8933H186.39V29.3653C185.857 30.1973 185.11 30.8693 184.15 31.3813C183.212 31.8933 182.113 32.1493 180.854 32.1493C179.404 32.1493 178.081 31.776 176.886 31.0293C175.692 30.2613 174.742 29.184 174.038 27.7973C173.356 26.3893 173.014 24.768 173.014 22.9333ZM186.39 22.9653C186.39 21.6 186.006 20.5226 185.238 19.7333C184.492 18.944 183.574 18.5493 182.486 18.5493C181.398 18.5493 180.47 18.944 179.702 19.7333C178.956 20.5013 178.582 21.568 178.582 22.9333C178.582 24.2986 178.956 25.3866 179.702 26.1973C180.47 26.9866 181.398 27.3813 182.486 27.3813C183.574 27.3813 184.492 26.9866 185.238 26.1973C186.006 25.408 186.39 24.3306 186.39 22.9653Z" fill="white"/>
</svg>
